<?xml version="1.0" encoding="UTF-8"?> <svg xmlns="http://www.w3.org/2000/svg" width="206" height="63.966" viewBox="0 0 206 63.966"><g transform="translate(385.268 86.031) rotate(90)"><path d="M-60.093,229.18a6.625,6.625,0,0,0-2.142-1.047,9.33,9.33,0,0,0-2.629-.356h-4.666a9.3,9.3,0,0,0-2.641.356,6.385,6.385,0,0,0-2.119,1.058,4.98,4.98,0,0,0-1.417,1.726,5.2,5.2,0,0,0-.51,2.358,5.414,5.414,0,0,0,.51,2.452,4.661,4.661,0,0,0,1.417,1.69,6.224,6.224,0,0,0,2.131.988,10.386,10.386,0,0,0,2.629.321h4.666a10.386,10.386,0,0,0,2.629-.321,6.115,6.115,0,0,0,2.131-1,4.925,4.925,0,0,0,1.44-1.714,5.288,5.288,0,0,0,.536-2.463,5.062,5.062,0,0,0-.524-2.334A4.943,4.943,0,0,0-60.093,229.18Z" transform="translate(13.162 65.072)" fill="#fff"></path><path d="M-72.329,239.8a3.224,3.224,0,0,0-2.749,1.215A5.364,5.364,0,0,0-76,244.32v4.76h7.357v-4.76a5.422,5.422,0,0,0-.941-3.3A3.294,3.294,0,0,0-72.329,239.8Z" transform="translate(13.461 81.195)" fill="#fff"></path><path d="M-86.031,189.734l3.489,195.534h56.988l3.489-206Zm18.118,18.645H-62.6v9.785h22.422v6.687H-62.6v9.569h-5.308Zm5.4,39.746v3.426H-67.89V237.87h5.378v3.592h16.95V237.87h5.378v13.681h-5.378v-3.426Zm-5.4,28.98,13.5-1.9-13.5-2.236v-6.071l13.852-2.379-13.852-1.953v-6.188l27.73,4.856v6.046l-14.138,2.641,14.138,2.5v6.046l-27.73,4.9Zm27.254,83.065a11.041,11.041,0,0,1-2.428,3.894,10.875,10.875,0,0,1-3.76,2.487,12.836,12.836,0,0,1-4.833.88h-4.69a11.822,11.822,0,0,1-4.844-.976,11.658,11.658,0,0,1-3.772-2.629,11.827,11.827,0,0,1-2.44-3.88,13.026,13.026,0,0,1-.869-4.772,17.352,17.352,0,0,1,.691-5.165,10.657,10.657,0,0,1,1.927-3.7,8.013,8.013,0,0,1,2.976-2.25,9.685,9.685,0,0,1,3.833-.784V349.7a4.563,4.563,0,0,0-1.953.417,3.274,3.274,0,0,0-1.262,1.1,4.809,4.809,0,0,0-.688,1.667A9.805,9.805,0,0,0-62.987,355a5.3,5.3,0,0,0,.475,2.215,5.672,5.672,0,0,0,1.346,1.845,6.637,6.637,0,0,0,2.082,1.274,7.272,7.272,0,0,0,2.667.475h4.737a8.954,8.954,0,0,0,2.618-.37,6,6,0,0,0,2.107-1.105,5.089,5.089,0,0,0,1.4-1.894,6.7,6.7,0,0,0,.51-2.725q0-.808-.07-1.583a13.132,13.132,0,0,0-.2-1.414,8.223,8.223,0,0,0-.309-1.143,3.064,3.064,0,0,0-.391-.787l-4.453-.023v5.212h-4.88V343.153h11.665a7.577,7.577,0,0,1,1.428,1.773,14.527,14.527,0,0,1,1.236,2.667,20.911,20.911,0,0,1,.88,3.416,23.017,23.017,0,0,1,.335,4.023A14.542,14.542,0,0,1-40.659,360.17Zm.475-29.9v6.64h-27.73v-11.4a18.165,18.165,0,0,1,.522-4.5,10.6,10.6,0,0,1,1.571-3.522,7.284,7.284,0,0,1,2.608-2.285,7.8,7.8,0,0,1,3.653-.81,9.889,9.889,0,0,1,2.892.382,7.2,7.2,0,0,1,2.189,1.07,7.261,7.261,0,0,1,1.632,1.667,12.808,12.808,0,0,1,1.213,2.142l11.187-6.355h.262v7.116l-9.687,5.308v4.547Zm-.522-26.978a11.378,11.378,0,0,1-2.5,3.833,11.055,11.055,0,0,1-3.772,2.463,12.608,12.608,0,0,1-4.725.869h-4.643a12.89,12.89,0,0,1-4.737-.857,11.024,11.024,0,0,1-3.8-2.451,11.32,11.32,0,0,1-2.512-3.819,13.169,13.169,0,0,1-.9-4.987,12.952,12.952,0,0,1,.9-4.915,11.427,11.427,0,0,1,2.512-3.833,11.387,11.387,0,0,1,3.8-2.5,12.441,12.441,0,0,1,4.737-.892H-51.7a12.521,12.521,0,0,1,4.725.88,11.23,11.23,0,0,1,3.772,2.477,11.433,11.433,0,0,1,2.5,3.819,12.973,12.973,0,0,1,.9,4.917A13.243,13.243,0,0,1-40.705,303.3Z" transform="translate(0 0)" fill="#fff"></path></g></svg> 