<?xml version="1.0" encoding="utf-8"?>
<!-- Generator: Adobe Illustrator 26.3.1, SVG Export Plug-In . SVG Version: 6.00 Build 0)  -->
<svg version="1.1" id="Layer_1" xmlns="http://www.w3.org/2000/svg" xmlns:xlink="http://www.w3.org/1999/xlink" x="0px" y="0px"
	 viewBox="0 0 841.9 595.3" style="enable-background:new 0 0 841.9 595.3;" xml:space="preserve">
<style type="text/css">
	.st0{fill:#E3006A;}
	.st1{fill:#0B3087;}
</style>
<g>
	<path class="st0" d="M119.8,216.9c8.8,0,17.9,5.4,17.9,16.1c0,10.6-9,16-17.9,16c-9,0-18-5.4-18-16
		C101.8,222.3,110.8,216.9,119.8,216.9"/>
	<rect x="103.7" y="256.5" class="st1" width="32.1" height="84.3"/>
	<path class="st1" d="M203.9,340.8v-47.4c0-10.6-6.1-14.2-12-14.2c-7.6,0-14.7,5.2-14.7,16.5v45.1h-31.6v-85.7h22.5l7.1,9.4
		c7.3-8.5,18-11.6,27.1-11.5c18,0.2,33.5,9.7,33.5,40.3v47.5H203.9z"/>
	<path class="st1" d="M274.7,270v-4.2c0-7.5,4.5-10.6,9.5-10.6c4.2,0,8.2,1.2,11.6,4.2l9.7-19.3c-6.4-6.2-16-9.4-25.9-9.4
		c-17.7,0-37,9.9-37,35v4.2v24.6v46.1h31.9v-46.1h8.7l12.1-24.6H274.7z"/>
	<path class="st1" d="M392.9,298.1c0,31.2-24.8,44.8-48.9,44.8c-24.6,0-48.9-13.5-48.9-44.8c0-31.7,24.1-44.9,48.9-44.9
		C369.3,253.2,392.9,266.9,392.9,298.1 M361.7,298.1c0-9.9-6.4-18.7-17.7-18.7c-11.3,0-17.7,8.8-17.7,18.7c0,9.9,6.4,18.6,17.7,18.6
		C354.7,316.7,361.7,308.5,361.7,298.1"/>
	<path class="st1" d="M403.1,308.5c13,8.5,23.4,9.2,30.4,9.5c5.7,0,8.7-1.4,8.7-4.2c0-2.8-2.8-4.2-9-4.7
		c-16.7-0.5-36.8-7.3-36.8-28.1c0-20.6,19.4-28.1,39.6-28.1c13.9,0,26.7,4.2,35,10.4l-13.5,19.1c-4.7-2.9-14.6-5.4-21.5-5.2
		c-4.5,0-7.6,1-7.6,4.2c0,1.6,1.2,4,6.4,4.2c17.9,0.5,39.4,5.6,39.4,28.3c0,21.2-19.3,29.1-39.9,29.1c-14.9,0-31.8-4.2-41.5-11.3
		L403.1,308.5z"/>
	<path class="st1" d="M477.4,255.6v-21.3l31.7-3.5v24.8h19.3v24.5H509v28.1c0.2,6.1,3.6,8.3,8.5,8.3c3.1,0,6.8-1.2,9.4-2.9l6.9,23.6
		c-7.3,4.2-15.8,5.7-24.6,5.7c-17,0-32.3-7.8-31.7-34.7v-28.1V255.6z"/>
	<path class="st1" d="M566.6,255.1v47.4c0,10.6,6.1,14.2,12,14.2c7.6,0,14.7-4.7,14.7-16v-45.6h31.6v85.7h-22.5l-7.1-9.4
		c-7.3,8.5-18,11.6-27.1,11.5c-18-0.2-33.5-9.7-33.5-40.3v-47.5H566.6z"/>
	<path class="st1" d="M694.2,233h31.9v107.8h-22.7l-7.1-9.2c-7.3,8.3-18.7,11.3-28.3,10.8c-25.2-1.6-39.2-17.4-39.2-44.4
		c0-26.2,16.7-44.8,41.6-44.8c10.9,0,19.1,3.5,23.8,9.2V233z M660.5,297.9c0,12,7.6,18.7,17.2,18.7c10.8,0,17.2-8.8,17.2-17.9
		c0-10.4-5.9-19.8-17.2-19.8C668.1,279,660.5,286,660.5,297.9"/>
	<path class="st0" d="M753.3,307.4c8.8,0,17.9,5.4,17.9,16.1c0,10.6-9,16-17.9,16c-9,0-18-5.4-18-16
		C735.2,312.8,744.3,307.4,753.3,307.4"/>
</g>
</svg>
